<svg width="20" height="20" viewBox="0 0 20 20" fill="none" xmlns="http://www.w3.org/2000/svg">
<path fill-rule="evenodd" clip-rule="evenodd" d="M4.9987 8.33334C4.08203 8.33334 3.33203 9.08334 3.33203 10C3.33203 10.9167 4.08203 11.6667 4.9987 11.6667C5.91536 11.6667 6.66536 10.9167 6.66536 10C6.66536 9.08334 5.91536 8.33334 4.9987 8.33334ZM14.9987 8.33334C14.082 8.33334 13.332 9.08334 13.332 10C13.332 10.9167 14.082 11.6667 14.9987 11.6667C15.9154 11.6667 16.6654 10.9167 16.6654 10C16.6654 9.08334 15.9154 8.33334 14.9987 8.33334ZM9.9987 8.33334C9.08203 8.33334 8.33203 9.08334 8.33203 10C8.33203 10.9167 9.08203 11.6667 9.9987 11.6667C10.9154 11.6667 11.6654 10.9167 11.6654 10C11.6654 9.08334 10.9154 8.33334 9.9987 8.33334Z" fill="#666666"/>
</svg>
