<svg width="20" height="20" viewBox="0 0 20 20" fill="none" xmlns="http://www.w3.org/2000/svg">
<path d="M18.806 4.94606C18.5345 5.08473 18.202 4.97858 18.0611 4.70825C17.339 3.28253 16.2458 2.078 14.8965 1.22161C14.5375 0.989687 14.5642 0.456117 14.9445 0.261179C15.1171 0.172703 15.3234 0.180749 15.4887 0.282398C16.9997 1.24902 18.2264 2.60026 19.0429 4.19747C19.1842 4.4696 19.0781 4.80476 18.806 4.94606ZM1.96034 4.70825C2.68238 3.28253 3.77566 2.078 5.12497 1.22161C5.48396 0.989687 5.45727 0.456117 5.07691 0.261179C4.90428 0.172703 4.69798 0.180749 4.53276 0.282398C3.0217 1.24902 1.79501 2.60026 0.978571 4.19747C0.751055 4.55927 1.00052 5.03169 1.42761 5.04782C1.65856 5.05655 1.87075 4.92129 1.96034 4.70825ZM18.5237 14.9035C19.0263 15.764 18.4098 16.8459 17.4134 16.8523H13.4807C13.043 19.5235 9.87786 20.7192 7.78336 19.0046C7.12097 18.4623 6.67913 17.6971 6.54073 16.8523H2.60808C1.61083 16.8502 0.989829 15.7693 1.49027 14.9067C1.49088 14.9057 1.49151 14.9046 1.49213 14.9035C2.34251 13.4369 2.79314 11.3586 2.79314 8.89445C2.79314 3.33836 8.80778 -0.134203 13.6195 2.64384C15.8526 3.93314 17.2283 6.31585 17.2283 8.89445C17.2283 11.3928 17.6669 13.4156 18.5311 14.9035H18.5237ZM12.3509 16.8523H7.67056C8.10041 18.6537 10.3192 19.3143 11.6644 18.0413C12.0038 17.7201 12.2424 17.3069 12.3509 16.8523ZM17.5716 15.4643C16.6074 13.7987 16.1179 11.5918 16.1179 8.89445C16.1179 4.19314 11.0286 1.25482 6.95713 3.60548C5.06755 4.69641 3.90354 6.71256 3.90354 8.89445C3.90354 11.5927 3.41404 13.7987 2.44984 15.4643C2.41678 15.5215 2.41678 15.5921 2.44984 15.6494C2.48091 15.7071 2.54156 15.7428 2.60715 15.7419H17.4134C17.4789 15.7428 17.5396 15.7071 17.5707 15.6494C17.604 15.5923 17.6044 15.5217 17.5716 15.4643Z" fill="black"/>
</svg>
