<svg width="24" height="24" viewBox="0 0 24 24" fill="none" xmlns="http://www.w3.org/2000/svg">
<path d="M12.0009 0.960007C5.90951 0.960007 0.960938 5.90858 0.960938 12C0.960938 18.0914 5.90951 23.04 12.0009 23.04C18.0924 23.04 23.0409 18.0914 23.0409 12C23.0409 5.90858 18.0924 0.960007 12.0009 0.960007ZM12.0009 1.92001C17.5735 1.92001 22.0809 6.42743 22.0809 12C22.0809 17.5726 17.5735 22.08 12.0009 22.08C6.42836 22.08 1.92094 17.5726 1.92094 12C1.92094 6.42743 6.42836 1.92001 12.0009 1.92001ZM16.7953 7.19438C16.7173 7.19592 16.6409 7.21644 16.5726 7.25418C16.5043 7.29191 16.4462 7.34572 16.4034 7.41094L11.5069 14.6288L8.00719 11.3813C7.96122 11.337 7.90689 11.3024 7.84738 11.2794C7.78787 11.2564 7.72437 11.2455 7.6606 11.2473C7.59683 11.2491 7.53406 11.2637 7.47596 11.29C7.41787 11.3164 7.36561 11.3541 7.32224 11.4009C7.27888 11.4477 7.24527 11.5026 7.2234 11.5626C7.20152 11.6225 7.19181 11.6862 7.19483 11.7499C7.19785 11.8136 7.21354 11.8761 7.24099 11.9337C7.26844 11.9913 7.30709 12.0428 7.35469 12.0853L11.6728 16.0922L17.1984 7.94907C17.2491 7.87645 17.2787 7.79122 17.284 7.70281C17.2892 7.61441 17.2699 7.52627 17.2282 7.44816C17.1865 7.37004 17.124 7.30499 17.0476 7.2602C16.9712 7.21542 16.8839 7.19264 16.7953 7.19438Z" fill="black"/>
</svg>
