<svg width="14" height="14" viewBox="0 0 14 14" fill="none" xmlns="http://www.w3.org/2000/svg">
<path d="M7.00065 13.6667C3.31865 13.6667 0.333984 10.682 0.333984 7.00004C0.333984 3.31804 3.31865 0.333374 7.00065 0.333374C10.6827 0.333374 13.6673 3.31804 13.6673 7.00004C13.6673 10.682 10.6827 13.6667 7.00065 13.6667ZM7.00065 12.3334C8.41514 12.3334 9.77169 11.7715 10.7719 10.7713C11.7721 9.77108 12.334 8.41453 12.334 7.00004C12.334 5.58555 11.7721 4.229 10.7719 3.2288C9.77169 2.22861 8.41514 1.66671 7.00065 1.66671C5.58616 1.66671 4.22961 2.22861 3.22941 3.2288C2.22922 4.229 1.66732 5.58555 1.66732 7.00004C1.66732 8.41453 2.22922 9.77108 3.22941 10.7713C4.22961 11.7715 5.58616 12.3334 7.00065 12.3334ZM6.33598 9.66671L3.50732 6.83804L4.44998 5.89537L6.33598 7.78137L10.1073 4.01004L11.05 4.95271L6.33598 9.66671Z" fill="#419A09"/>
</svg>
