<svg width="20" height="20" viewBox="0 0 20 20" fill="none" xmlns="http://www.w3.org/2000/svg">
<path d="M10.0004 0.399994C7.42684 0.399994 5.09175 1.42463 3.36602 3.07968C3.24722 3.14873 3.14821 3.2472 3.07852 3.36562C1.42389 5.09128 0.400391 7.42682 0.400391 9.99999C0.400391 15.2925 4.70793 19.6 10.0004 19.6C12.5684 19.6 14.8992 18.58 16.6238 16.9312C16.7521 16.8593 16.8581 16.7533 16.9301 16.625C18.5797 14.9002 19.6004 12.5688 19.6004 9.99999C19.6004 4.70754 15.2928 0.399994 10.0004 0.399994ZM10.0004 1.99999C14.4281 1.99999 18.0004 5.57224 18.0004 9.99999C18.0004 11.9251 17.3245 13.6872 16.1973 15.0656L4.93477 3.80312C6.31314 2.67586 8.07529 1.99999 10.0004 1.99999ZM3.80352 4.93437L15.066 16.1969C13.6876 17.3241 11.9255 18 10.0004 18C5.57264 18 2.00039 14.4277 2.00039 9.99999C2.00039 8.0749 2.67625 6.31274 3.80352 4.93437Z" fill="black"/>
</svg>
