<svg width="18" height="18" viewBox="0 0 18 18" fill="none" xmlns="http://www.w3.org/2000/svg">
<path d="M9.00586 1.62246C11.4105 1.62246 11.6953 1.633 12.641 1.67519C13.5199 1.71386 13.9945 1.86152 14.3109 1.98457C14.7293 2.14629 15.0316 2.34316 15.3445 2.65605C15.6609 2.97246 15.8543 3.27129 16.016 3.68965C16.1391 4.00605 16.2867 4.48418 16.3254 5.35957C16.3676 6.30879 16.3781 6.59355 16.3781 8.99472C16.3781 11.3994 16.3676 11.6842 16.3254 12.6299C16.2867 13.5088 16.1391 13.9834 16.016 14.2998C15.8543 14.7182 15.6574 15.0205 15.3445 15.3334C15.0281 15.6498 14.7293 15.8432 14.3109 16.0049C13.9945 16.1279 13.5164 16.2756 12.641 16.3143C11.6918 16.3564 11.407 16.367 9.00586 16.367C6.60117 16.367 6.31641 16.3564 5.3707 16.3143C4.4918 16.2756 4.01719 16.1279 3.70078 16.0049C3.28242 15.8432 2.98008 15.6463 2.66719 15.3334C2.35078 15.017 2.15742 14.7182 1.9957 14.2998C1.87266 13.9834 1.725 13.5053 1.68633 12.6299C1.64414 11.6807 1.63359 11.3959 1.63359 8.99472C1.63359 6.59004 1.64414 6.30527 1.68633 5.35957C1.725 4.48066 1.87266 4.00605 1.9957 3.68965C2.15742 3.27129 2.3543 2.96894 2.66719 2.65605C2.98359 2.33965 3.28242 2.14629 3.70078 1.98457C4.01719 1.86152 4.49531 1.71386 5.3707 1.67519C6.31641 1.633 6.60117 1.62246 9.00586 1.62246ZM9.00586 0.00175476C6.5625 0.00175476 6.25664 0.0123016 5.29688 0.0544891C4.34063 0.0966766 3.6832 0.251364 3.11367 0.472849C2.51953 0.70488 2.0168 1.01074 1.51758 1.51347C1.01484 2.01269 0.708984 2.51543 0.476953 3.10605C0.255469 3.6791 0.100781 4.333 0.0585938 5.28926C0.0164063 6.25254 0.00585938 6.5584 0.00585938 9.00176C0.00585938 11.4451 0.0164063 11.751 0.0585938 12.7107C0.100781 13.667 0.255469 14.3244 0.476953 14.8939C0.708984 15.4881 1.01484 15.9908 1.51758 16.49C2.0168 16.9893 2.51953 17.2986 3.11016 17.5271C3.6832 17.7486 4.33711 17.9033 5.29336 17.9455C6.25313 17.9877 6.55898 17.9982 9.00234 17.9982C11.4457 17.9982 11.7516 17.9877 12.7113 17.9455C13.6676 17.9033 14.325 17.7486 14.8945 17.5271C15.4852 17.2986 15.9879 16.9893 16.4871 16.49C16.9863 15.9908 17.2957 15.4881 17.5242 14.8975C17.7457 14.3244 17.9004 13.6705 17.9426 12.7143C17.9848 11.7545 17.9953 11.4486 17.9953 9.00527C17.9953 6.56191 17.9848 6.25605 17.9426 5.29629C17.9004 4.34004 17.7457 3.68261 17.5242 3.11308C17.3027 2.51543 16.9969 2.01269 16.4941 1.51347C15.9949 1.01425 15.4922 0.70488 14.9016 0.476364C14.3285 0.25488 13.6746 0.100192 12.7184 0.0580048C11.7551 0.0123016 11.4492 0.00175476 9.00586 0.00175476Z" fill="#1F145C"/>
<path d="M9.00071 4.37871C6.44986 4.37871 4.38037 6.44901 4.38037 9.00085C4.38037 11.5527 6.44986 13.623 9.00071 13.623C11.5516 13.623 13.621 11.5527 13.621 9.00085C13.621 6.44901 11.5516 4.37871 9.00071 4.37871ZM9.00071 11.9991C7.34582 11.9991 6.00364 10.6564 6.00364 9.00085C6.00364 7.34532 7.34582 6.00261 9.00071 6.00261C10.6556 6.00261 11.9978 7.34532 11.9978 9.00085C11.9978 10.6564 10.6556 11.9991 9.00071 11.9991Z" fill="#1F145C"/>
<path d="M14.8824 4.19412C14.8824 4.79166 14.3976 5.27321 13.8038 5.27321C13.2065 5.27321 12.7251 4.78815 12.7251 4.19412C12.7251 3.59658 13.21 3.11504 13.8038 3.11504C14.3976 3.11504 14.8824 3.6001 14.8824 4.19412Z" fill="#1F145C"/>
</svg>
