<svg width="16" height="18" viewBox="0 0 16 18" fill="none" xmlns="http://www.w3.org/2000/svg">
<path fill-rule="evenodd" clip-rule="evenodd" d="M4.37876 15.6821C4.14686 15.672 3.56383 15.5699 2.97303 15.4146C2.38682 15.2632 1.98635 15.0611 1.98635 15.0611C1.766 14.9508 1.68559 14.7767 1.65471 14.5968C1.66413 14.6003 1.58005 14.032 1.58005 12.9325C1.58005 12.0979 1.62536 11.6507 1.64608 11.5095C1.66828 11.3607 1.74328 11.239 1.94339 11.2482C2.14352 11.2576 2.41559 11.2528 3.05543 11.3645C3.81842 11.5009 4.19228 11.616 4.37375 11.6761C4.53787 11.7327 4.71067 11.8563 4.74405 12.088C4.74405 12.088 4.83243 12.6966 4.83111 13.6195C4.83242 14.3664 4.7765 15.1064 4.75106 15.3457C4.72734 15.5673 4.61067 15.6922 4.37876 15.6821ZM7.83319 13.1154C7.83301 12.9834 7.77718 12.8604 7.66964 12.763L5.69298 10.9337C5.46617 10.7093 5.19628 10.5694 4.86792 10.5041C4.86792 10.5041 4.12218 10.3304 3.01206 10.1548C1.90191 9.97916 1.612 9.999 1.612 9.999C0.627774 9.999 0.592303 10.9895 0.582139 11.0895C0.557828 11.3285 0.5 11.9621 0.5 12.844C0.5 13.8848 0.546917 14.606 0.603559 15.0469C0.68966 15.7197 1.2372 16.0351 1.48923 16.1547C1.5531 16.1848 2.23697 16.458 2.93042 16.6598C3.39777 16.7961 4.14667 16.9953 4.4975 17.0476C4.61278 17.0651 5.29046 17.1749 5.61062 16.7744L7.7111 14.2042C7.79817 14.0851 7.83319 14.0367 7.83319 13.8545V13.1154ZM12.424 9.36628C12.1261 9.33774 11.8264 9.33163 11.5275 9.34788L6.80332 9.76528C6.80332 9.76528 6.49016 9.8103 6.31175 10.035C6.17376 10.2087 6.14474 10.3537 6.14474 10.3537C6.20724 10.4123 6.2325 10.4364 6.26694 10.4662L8.13245 12.262C8.34106 12.4553 8.46212 12.6434 8.46212 12.9249V13.9364C8.46212 14.1163 8.44568 14.2674 8.33976 14.403L7.33928 15.6858L8.34587 16.0543C8.72789 16.1731 9.08263 16.1697 9.48138 16.1124L13.8146 15.1736C13.8146 15.1736 14.596 14.9773 14.5961 14.2768V11.7847C14.5961 11.7366 14.5666 11.6952 14.5135 11.7054L11.7465 12.2187C11.6432 12.2385 11.5785 12.322 11.5785 12.4156V13.6228C11.5785 13.6949 11.6674 13.753 11.7465 13.7363L12.6135 13.5453C12.6586 13.5335 12.6934 13.5648 12.6952 13.6228V14.0122C12.691 14.0924 12.6243 14.1477 12.5304 14.168L11.549 14.3667C11.5498 14.3638 10.8904 14.5252 10.8904 13.8601V12.3204C10.8904 11.6485 11.4066 11.5805 11.4066 11.5805L14.4532 11.0261C14.5325 11.012 14.5961 10.9456 14.5961 10.8737V10.2465C14.5933 9.55395 13.8849 9.51108 13.8849 9.51108L12.424 9.36628ZM6.76169 2.83349C7.89478 2.87898 8.75369 3.89457 8.69479 5.12964C8.62942 6.36118 7.64737 7.34349 6.55572 7.30106C5.42287 7.25555 4.60175 6.23001 4.6604 4.99516C4.72577 3.76364 5.67003 2.79106 6.76169 2.83349ZM11.3263 5.72233C11.3727 4.88027 12.0093 4.21475 12.7608 4.24173C13.4752 4.27202 14.0458 4.98698 14.0075 5.80166C13.9614 6.64614 13.3149 7.28635 12.565 7.2638C11.8487 7.22883 11.2884 6.53967 11.3263 5.72233ZM15.1249 5.83239C15.1229 4.17027 13.8127 2.83376 12.1999 2.83376C11.2585 2.83376 10.4044 3.30404 9.85164 4.00206C9.427 2.22787 7.85778 0.920599 5.97906 0.92552C3.73689 0.931438 1.93422 2.75992 1.94171 5.01457C1.94921 7.29212 3.76155 9.1426 5.97906 9.13625C6.10678 9.13486 12.2174 8.74744 12.1999 8.74714C13.9611 8.60362 15.1339 7.45585 15.1249 5.83239Z" fill="#1F145C"/>
</svg>
