<svg width="41" height="40" viewBox="0 0 41 40" fill="none" xmlns="http://www.w3.org/2000/svg">
<path d="M22.5 18V10H18.5V18H10.5V22H18.5V30H22.5V22H30.5V18H22.5ZM20.5 40C15.1957 40 10.1086 37.8929 6.35786 34.1421C2.60714 30.3914 0.5 25.3043 0.5 20C0.5 14.6957 2.60714 9.60859 6.35786 5.85786C10.1086 2.10714 15.1957 0 20.5 0C25.8043 0 30.8914 2.10714 34.6421 5.85786C38.3929 9.60859 40.5 14.6957 40.5 20C40.5 25.3043 38.3929 30.3914 34.6421 34.1421C30.8914 37.8929 25.8043 40 20.5 40Z" fill="#666666"/>
</svg>
