<svg width="10" height="5" viewBox="0 0 10 5" fill="none" xmlns="http://www.w3.org/2000/svg">
<path d="M0.524611 0.383C0.524611 0.27765 0.55901 0.1875 0.627859 0.1125C0.696509 0.0374998 0.78711 -3.79743e-07 0.899611 -3.74825e-07L9.09961 -1.63918e-08C9.21211 -1.14742e-08 9.30276 0.0386502 9.37161 0.116C9.44026 0.19315 9.47461 0.28325 9.47461 0.38625C9.47461 0.4121 9.43296 0.5 9.34961 0.65L5.39961 4.6C5.34961 4.65 5.29076 4.69165 5.22311 4.725C5.15546 4.75835 5.08096 4.775 4.99961 4.775C4.91846 4.775 4.84396 4.75835 4.77611 4.725C4.70846 4.69165 4.64961 4.65 4.59961 4.6L0.64961 0.649999C0.616261 0.616649 0.587109 0.577 0.562109 0.531C0.537109 0.48485 0.524611 0.4355 0.524611 0.383Z" fill="#1C1C1E"/>
</svg>
