<svg width="16" height="15" viewBox="0 0 16 15" fill="none" xmlns="http://www.w3.org/2000/svg">
<path d="M5.61328 5.22501H8.59453" stroke="#1C1C1E" stroke-miterlimit="10" stroke-linecap="square"/>
<path d="M5.61328 7.6125H8.59453" stroke="#1C1C1E" stroke-miterlimit="10" stroke-linecap="square"/>
<path d="M5.61328 10H8.59453" stroke="#1C1C1E" stroke-miterlimit="10" stroke-linecap="square"/>
<path d="M12.775 13.575H3.225C2.75093 13.575 2.29627 13.3867 1.96105 13.0515C1.62583 12.7162 1.4375 12.2616 1.4375 11.7875V1.05L3 2.24375L4.61875 1.05L6.20625 2.24375L7.8 1.05L9.3875 2.24375L10.9812 1.05V11.7875C10.9829 12.2622 11.1726 12.7168 11.5088 13.0518C11.845 13.3869 12.3003 13.575 12.775 13.575Z" stroke="#1C1C1E" stroke-miterlimit="10" stroke-linecap="square"/>
<path d="M3.22461 5.22501H4.41836" stroke="#1C1C1E" stroke-miterlimit="10"/>
<path d="M3.22461 7.6125H4.41836" stroke="#1C1C1E" stroke-miterlimit="10"/>
<path d="M3.22461 10H4.41836" stroke="#1C1C1E" stroke-miterlimit="10"/>
<path d="M12.1742 5.81876H14.5617V11.7875C14.5347 12.2441 14.3343 12.6732 14.0015 12.9869C13.6686 13.3007 13.2285 13.4754 12.7711 13.4754C12.3137 13.4754 11.8736 13.3007 11.5407 12.9869C11.2079 12.6732 11.0075 12.2441 10.9805 11.7875V5.81876H12.1742Z" stroke="#1C1C1E" stroke-miterlimit="10"/>
</svg>
