<svg width="16" height="16" viewBox="0 0 16 16" fill="none" xmlns="http://www.w3.org/2000/svg">
<path d="M5.44531 4.80556C5.44531 5.48333 5.71456 6.13335 6.19382 6.61261C6.67308 7.09187 7.32309 7.36111 8.00087 7.36111C8.67864 7.36111 9.32866 7.09187 9.80792 6.61261C10.2872 6.13335 10.5564 5.48333 10.5564 4.80556C10.5564 4.12778 10.2872 3.47776 9.80792 2.9985C9.32866 2.51925 8.67864 2.25 8.00087 2.25C7.32309 2.25 6.67308 2.51925 6.19382 2.9985C5.71456 3.47776 5.44531 4.12778 5.44531 4.80556Z" stroke="#1C1C1E" stroke-linecap="round" stroke-linejoin="round"/>
<path d="M10.5547 12.4722H14.388" stroke="#1C1C1E" stroke-linecap="round" stroke-linejoin="round"/>
<path d="M12.4727 10.5556V14.3889" stroke="#1C1C1E" stroke-linecap="round" stroke-linejoin="round"/>
<path d="M4.16602 13.75V12.4722C4.16602 11.7944 4.43526 11.1444 4.91452 10.6652C5.39378 10.1859 6.0438 9.91666 6.72157 9.91666H9.27713" stroke="#1C1C1E" stroke-linecap="round" stroke-linejoin="round"/>
</svg>
