<svg width="18" height="14" viewBox="0 0 18 14" fill="none" xmlns="http://www.w3.org/2000/svg">
<path d="M17.8207 3.40176C17.8207 3.40176 17.6449 2.16075 17.1035 1.61582C16.418 0.898636 15.6516 0.89512 15.3 0.852933C12.7828 0.67012 9.00352 0.67012 9.00352 0.67012H8.99648C8.99648 0.67012 5.21719 0.67012 2.7 0.852933C2.34844 0.89512 1.58203 0.898636 0.896484 1.61582C0.355078 2.16075 0.182812 3.40176 0.182812 3.40176C0.182812 3.40176 0 4.86075 0 6.31621V7.68028C0 9.13575 0.179297 10.5947 0.179297 10.5947C0.179297 10.5947 0.355078 11.8357 0.892969 12.3807C1.57852 13.0979 2.47852 13.0732 2.8793 13.1506C4.3207 13.2877 9 13.3299 9 13.3299C9 13.3299 12.7828 13.3229 15.3 13.1436C15.6516 13.1014 16.418 13.0979 17.1035 12.3807C17.6449 11.8357 17.8207 10.5947 17.8207 10.5947C17.8207 10.5947 18 9.13926 18 7.68028V6.31621C18 4.86075 17.8207 3.40176 17.8207 3.40176ZM7.14023 9.33614V4.27715L12.0023 6.81543L7.14023 9.33614Z" fill="#080618"/>
</svg>
